# xmcd
#
# Track frame offsets: 
#        150
#        8650
#        26105
#        57237
#        74022
#        95742
#        103260
#        123740
#
# Disc length: 1926 seconds
#
# Revision: 1
# Processed by: cddbd v1.5.2PL0 Copyright (c) Steve Scherf et al.
# Submitted via: ExactAudioCopy v1.1
#
DISCID=74078408
DTITLE=Cuby and Blizzards - Groeten Uit Grollo
DYEAR=1967
DGENRE=Blues
TTITLE0=Another Day, Another Road
TTITLE1=The Big Bell
TTITLE2=Somebody Will Know Someday
TTITLE3=So Many Roads
TTITLE4=King Of The World
TTITLE5=Baby Please Don't Go (Back To New Orleans)
TTITLE6=No Shoes
TTITLE7=Another Land
EXTD=YEAR: 1967
EXTT0=
EXTT1=
EXTT2=
EXTT3=
EXTT4=
EXTT5=
EXTT6=
EXTT7=
PLAYORDER=
